PathFileType	4	(X/Y/Z)	C:/Users/opensim2020/Desktop/walking_exp_matlab/subject01_walking04_straight_04.trc																																																																																																																															
DataRate	CameraRate	NumFrames	NumMarkers	Units	OrigDataRate	OrigDataStartFrame	OrigNumFrames																																																																																																																											
100	100	7	43	mm	100	2871	279																																																																																																																											
Frame#	Time	LFHD			RFHD			LBHD			RBHD			C7			T10			CLAV			STRN			RBAK			LSHO			LUPA			LELB			LFRM			LWRA			LWRB			LFIN			RSHO			RUPA			RELB			RFRM			RWRA			RWRB			RFIN			LASI			RASI			LPSI			RPSI			LTHI			LKNE			LTIB			LANK			LHEE			LTOE			RTHI			RKNE			RTIB			RANK			RHEE			RTOE			*39			*40			*41			*42		
		X1	Y1	Z1	X2	Y2	Z2	X3	Y3	Z3	X4	Y4	Z4	X5	Y5	Z5	X6	Y6	Z6	X7	Y7	Z7	X8	Y8	Z8	X9	Y9	Z9	X10	Y10	Z10	X11	Y11	Z11	X12	Y12	Z12	X13	Y13	Z13	X14	Y14	Z14	X15	Y15	Z15	X16	Y16	Z16	X17	Y17	Z17	X18	Y18	Z18	X19	Y19	Z19	X20	Y20	Z20	X21	Y21	Z21	X22	Y22	Z22	X23	Y23	Z23	X24	Y24	Z24	X25	Y25	Z25	X26	Y26	Z26	X27	Y27	Z27	X28	Y28	Z28	X29	Y29	Z29	X30	Y30	Z30	X31	Y31	Z31	X32	Y32	Z32	X33	Y33	Z33	X34	Y34	Z34	X35	Y35	Z35	X36	Y36	Z36	X37	Y37	Z37	X38	Y38	Z38	X39	Y39	Z39	X40	Y40	Z40	X41	Y41	Z41	X42	Y42	Z42	X43	Y43	Z43
																																																																																																																																		
175	1.74	-200.32283	1662.25378	-1523.11426	-175.20824	1669.38257	-1411.82336	-317.23959	1621.06482	-1502.74731	-293.69943	1627.55652	-1383.44958	-354.91922	1423.9502	-1456.63037	-381.11194	1130.57019	-1438.45313	-209.54501	1359.59534	-1460.20813	-161.4183	1208.16199	-1460.60071	-400.24411	1231.13538	-1367.25183	-277.66312	1380.14233	-1620.08179	-312.99344	1191.91992	-1695.14893	-334.79517	1044.41016	-1686.22583	-312.78156	933.16302	-1707.60095	-253.149	808.25323	-1683.60229	-308.17551	810.62384	-1710.0647	-268.16684	736.54077	-1718.20459	-269.31155	1392.46851	-1307.4978	-311.11121	1196.20837	-1193.60071	-300.23376	1069.3573	-1185.46106	-246.50607	957.0097	-1165.63232	-151.48933	858.65833	-1207.46484	-184.27802	850.62921	-1160.13354	-133.87656	782.97302	-1173.41663	-199.2117	928.63171	-1543.11804	-207.74942	925.69946	-1326.84851	-387.8862	939.82874	-1498.26111	-390.27484	941.94312	-1353.18542	-172.59628	605.6095	-1591.38184	-152.30649	474.60837	-1568.36243	-186.9671	286.74161	-1578.72168	-204.45328	70.50014	-1525.66125	-250.10843	40.44684	-1473.96533	-58.85803	36.72387	-1526.72974	-262.42853	588.91821	-1259.9967	-272.10281	431.55414	-1272.86646	-426.51624	346.01044	-1275.8114	-583.36377	214.83817	-1325.66589	-628.27155	235.71861	-1382.83911	-565.46777	68.78653	-1334.34314	-188.92435	1703.00769	-1433.83179	-1973.1637	1023.40002	3101.91016	-2012.56445	1022.02618	3140.6604	NaN	NaN	NaN
176	1.75	-189.89839	1662.99487	-1524.38782	-164.79939	1670.20544	-1413.06665	-306.83658	1621.91821	-1504.00317	-283.34702	1628.50989	-1384.71509	-344.64832	1425.00513	-1457.93896	-371.41656	1131.64587	-1440.10596	-199.38992	1360.37695	-1461.09363	-151.59038	1208.71094	-1461.43274	-390.65433	1232.15784	-1368.99011	-266.88736	1381.18933	-1621.1178	-300.56912	1192.9386	-1696.77771	-320.75043	1044.91931	-1688.70667	-296.37262	934.10571	-1710.3042	-234.04787	810.46423	-1686.46753	-289.06558	811.78265	-1713.14136	-247.60283	738.8631	-1721.63037	-259.42438	1393.14917	-1308.49988	-302.40103	1196.86365	-1195.14087	-292.68091	1069.72571	-1188.04675	-241.29221	956.41382	-1167.51111	-147.40875	856.5257	-1208.07886	-181.18359	848.90302	-1161.18042	-131.77045	780.54297	-1173.85193	-189.61534	929.13239	-1544.23499	-198.16559	926.98474	-1327.86914	-378.38272	940.20978	-1499.52295	-380.83609	941.64087	-1354.60059	-165.56995	605.43097	-1593.03088	-147.67882	473.69675	-1569.54797	-185.00307	286.38388	-1579.19763	-204.27411	70.52644	-1525.61694	-250.06044	40.50001	-1473.89832	-58.58149	36.57788	-1526.96729	-245.87392	590.23328	-1260.86682	-251.26007	433.04712	-1273.53064	-405.83612	348.62457	-1276.68408	-565.23383	221.02823	-1327.50745	-609.03955	240.64665	-1386.45728	-548.93958	74.77937	-1330.74744	-178.2453	1703.84241	-1435.16199	-1973.20093	1023.48145	3101.83032	-2012.61462	1021.99463	3140.52124	NaN	NaN	NaN
177	1.76	-179.31747	1663.651	-1525.38525	-154.39185	1670.82971	-1414.05273	-296.43027	1622.79272	-1505.14929	-272.99234	1629.37317	-1385.79785	-334.46585	1426.00488	-1459.19043	-361.88101	1132.7478	-1441.75659	-189.35735	1361.005	-1461.83203	-141.89137	1209.27563	-1462.19446	-381.09152	1233.12292	-1370.90564	-256.10764	1382.13098	-1621.99622	-287.9856	1194.0791	-1698.59875	-306.73083	1045.36096	-1691.0575	-279.95004	935.18744	-1713.06714	-214.78174	812.92896	-1689.4834	-269.814	813.07391	-1716.15063	-226.46466	741.18567	-1724.75342	-249.76865	1393.875	-1309.53455	-293.62344	1197.32813	-1196.75952	-285.14166	1070.10352	-1190.55151	-236.04417	955.96338	-1169.43237	-143.28305	854.39203	-1208.49121	-178.60638	847.51886	-1162.33557	-129.80956	778.13788	-1174.07886	-179.00838	929.85938	-1545.44019	-188.21173	928.37903	-1328.5918	-368.98984	940.60028	-1500.67639	-371.40567	941.35327	-1355.854	-161.03156	604.44427	-1593.82788	-143.32469	472.83215	-1570.68201	-182.7784	285.93491	-1579.67346	-204.09039	70.55199	-1525.57385	-249.68077	40.5821	-1473.60803	-58.18714	36.27741	-1527.21997	-229.74612	591.60913	-1261.5979	-230.46242	434.63617	-1274.21667	-385.08151	350.96198	-1277.13989	-546.14807	226.42125	-1329.37183	-589.39349	244.36829	-1390.14075	-529.35455	80.38954	-1326.77893	-167.73459	1704.58374	-1436.22693	-1973.18237	1023.50922	3101.91016	-2012.61145	1022.1192	3140.56763	NaN	NaN	NaN
178	1.77	-168.79143	1664.30042	-1526.3125	-143.88625	1671.47424	-1414.94214	-285.98547	1623.62439	-1506.08606	-262.6015	1630.18848	-1386.72437	-324.37424	1426.9137	-1460.35339	-352.48636	1133.69043	-1443.34241	-179.31412	1361.65625	-1462.53125	-132.27872	1209.71436	-1462.93372	-371.65585	1233.92871	-1372.84375	-245.39326	1383.04004	-1622.81738	-275.4646	1195.13464	-1700.16516	-292.87741	1045.97986	-1693.58594	-263.50455	936.36279	-1715.84607	-195.33464	815.81537	-1692.63611	-250.32248	814.59442	-1719.20667	-205.23444	743.85443	-1728.02478	-240.00175	1394.36108	-1310.41772	-284.89087	1197.69189	-1198.51636	-277.68527	1070.48669	-1192.98523	-230.97646	955.63391	-1171.15015	-139.51218	852.46619	-1208.71619	-175.13486	846.00031	-1163.10486	-127.90021	775.90112	-1174.08789	-171.36557	929.62494	-1546.45386	-178.54752	929.63428	-1329.42419	-359.62479	940.94446	-1501.60376	-362.03262	941.1228	-1356.98059	-154.99663	603.78302	-1594.93762	-139.12624	471.97037	-1571.6106	-180.01076	285.56171	-1580.14771	-203.56851	70.47598	-1525.47131	-249.47141	40.89417	-1473.62805	-57.78296	35.95046	-1527.4043	-213.62581	593.36725	-1262.3197	-209.8139	436.92419	-1274.85815	-364.10373	353.49261	-1278.24097	-526.15839	230.41841	-1331.64722	-569.26672	246.50356	-1393.27246	-508.44699	84.97639	-1323.38489	-157.30571	1705.14673	-1437.03137	-1973.18896	1023.41028	3101.9668	-2012.58655	1022.05554	3140.67285	NaN	NaN	NaN
179	1.78	-158.23988	1664.85425	-1527.02063	-133.46526	1671.89783	-1415.54968	-275.52716	1624.4762	-1506.89807	-252.44989	1630.93835	-1387.88916	-314.47836	1427.75769	-1461.46045	-343.16705	1134.5918	-1444.82373	-169.37875	1362.19556	-1463.17346	-122.66469	1210.09192	-1463.64221	-362.24796	1234.64246	-1374.7605	-234.75626	1383.88892	-1623.55371	-262.95261	1196.24243	-1701.77625	-279.07526	1046.65039	-1696.16943	-246.98477	937.72443	-1718.78503	-175.80112	818.88672	-1695.74622	-230.76784	816.26563	-1722.06128	-183.9073	746.88879	-1731.48853	-230.5219	1394.86633	-1311.1521	-276.64651	1197.93372	-1200.22095	-270.23737	1070.86328	-1195.14819	-225.89665	955.34735	-1172.74561	-136.10837	850.46991	-1208.87109	-172.28951	844.76892	-1163.74036	-126.06149	773.89502	-1173.88208	-162.18829	930.09448	-1547.6449	-168.83247	930.93103	-1330.39453	-350.38068	941.25116	-1502.38818	-352.40427	941.08185	-1357.7926	-149.25919	603.04846	-1595.6571	-134.94968	471.17584	-1572.2583	-177.13676	285.45447	-1580.60022	-203.12926	70.52924	-1525.37878	-249.3309	41.11953	-1473.64929	-57.11755	35.62184	-1527.43469	-197.29593	595.23584	-1262.97656	-189.28587	439.17789	-1275.5343	-343.46494	355.92432	-1279.80652	-505.32916	233.05685	-1333.65771	-548.72168	247.43066	-1395.85767	-485.80624	88.41821	-1321.02722	-146.68982	1705.65796	-1437.6958	-1973.17761	1023.42542	3101.92236	-2012.50793	1021.9494	3140.65723	NaN	NaN	NaN
180	1.79	-147.61591	1665.35938	-1527.49829	-122.87668	1672.23242	-1416.03809	-265.02969	1625.323	-1507.5907	-241.84032	1631.56653	-1388.19019	-304.47693	1428.55688	-1462.55603	-333.91763	1135.38318	-1446.21277	-159.524	1362.66492	-1463.72778	-113.23356	1210.40857	-1464.32642	-352.85538	1235.2439	-1376.59509	-224.24165	1384.72144	-1624.22656	-250.53487	1197.34509	-1703.23743	-265.3363	1047.27344	-1698.77051	-230.60254	939.0708	-1721.46118	-156.12393	822.16473	-1698.9093	-211.01149	818.16278	-1725.23193	-162.30098	750.13983	-1734.71509	-221.16783	1395.28406	-1311.89404	-268.51862	1198.17004	-1201.99255	-262.9454	1071.25769	-1197.19653	-220.9279	955.36035	-1174.18274	-132.44856	848.80084	-1208.77307	-169.42737	843.71997	-1164.18628	-124.3922	772.01501	-1173.47864	-153.02362	930.49487	-1548.95532	-158.9888	932.15179	-1331.51196	-341.13654	941.53735	-1503.02905	-342.7645	941.38068	-1358.48145	-143.63698	602.47955	-1596.22522	-130.62605	470.47839	-1572.67358	-174.38368	284.89584	-1580.66333	-202.73398	70.55978	-1525.27832	-249.17097	41.39227	-1473.58862	-56.66796	35.33744	-1527.57959	-180.75439	597.2049	-1263.52332	-169.11911	441.62473	-1276.4043	-322.78699	358.05725	-1281.35645	-484.1012	234.54865	-1335.43433	-528.164	247.15732	-1398.04883	-461.79971	90.78616	-1319.02905	-136.00401	1706.00952	-1438.10156	-1973.15723	1023.42474	3101.8396	-2012.50537	1021.90601	3140.71826	NaN	NaN	NaN
181	1.8	-136.95648	1665.85229	-1527.86218	-112.36195	1672.40112	-1416.33606	-254.54198	1626.17798	-1508.19983	-231.4868	1632.15747	-1388.76929	-294.64587	1429.29041	-1463.48328	-324.58951	1136.14709	-1447.57227	-149.755	1363.07654	-1464.24878	-103.82896	1210.73462	-1465.00781	-343.49725	1235.80444	-1378.31812	-213.88051	1385.51294	-1624.93188	-238.25478	1198.36206	-1704.70154	-251.67377	1047.95264	-1701.37915	-214.14276	940.54785	-1724.23877	-136.3985	825.79694	-1702.03149	-191.22076	820.27063	-1728.18286	-140.60017	753.68121	-1738.01318	-211.85905	1395.72717	-1312.64221	-260.66763	1198.28967	-1203.62732	-255.76468	1071.67212	-1199.09448	-215.92546	955.40778	-1175.48572	-128.59602	847.35974	-1208.46265	-166.64851	842.88751	-1164.43872	-122.47478	770.49469	-1172.99854	-143.6974	931.04944	-1550.50464	-149.23476	933.22852	-1332.71228	-331.92102	941.75842	-1503.50342	-333.02814	941.82013	-1358.91626	-137.84492	602.15491	-1596.32483	-126.3565	469.71094	-1573.02075	-171.76395	284.52435	-1580.91125	-202.29901	70.52287	-1525.09717	-249.06012	41.63898	-1473.5603	-56.2635	34.84245	-1527.58313	-164.26218	599.18494	-1264.15503	-149.12897	444.08713	-1277.22229	-302.33389	359.9678	-1283.32581	-462.45834	234.57213	-1336.76501	-507.25778	245.68787	-1399.74463	-436.45389	92.50882	-1317.9729	-125.36526	1706.32751	-1438.41418	-1973.28113	1023.39935	3101.95093	-2012.61755	1022.18658	3140.79907	NaN	NaN	NaN
